<svg xmlns="http://www.w3.org/2000/svg" xmlns:xlink="http://www.w3.org/1999/xlink" id="body_1" preserveAspectRatio="xMinYMin meet" viewBox="0 0 793 1121"><defs><clipPath id="1"><path id="" clip-rule="evenodd" transform="matrix(1 0 0 1 0 0)" d="M0 841L0 -0.8900146L0 -0.8900146L595.276 -0.8900146L595.276 -0.8900146L595.276 841L595.276 841L0 841z" /></clipPath></defs><g transform="matrix(1.333333 0 0 1.333333 0 0)"><g clip-path="url(#1)"><path id="73" transform="matrix(1 0 0 -1 0 841)" d="M39.685 752.323L561.26 752.323" stroke="#000000" stroke-width="0.398" fill="none" /><path id="512" transform="matrix(1 0 0 -1 0 841)" d="M39.685 602.414L561.26 602.414" stroke="#000000" stroke-width="0.398" fill="none" /><path id="1684" transform="matrix(1 0 0 -1 0 841)" d="M39.685 286.47L561.26 286.47" stroke="#000000" stroke-width="0.398" fill="none" /><path id="2121" transform="matrix(1 0 0 -1 0 841)" d="M39.685 173.615L561.26 173.615" stroke="#000000" stroke-width="0.398" fill="none" /><path id="2320" transform="matrix(1 0 0 -1 0 841)" d="M39.685 107.859L561.26 107.859" stroke="#000000" stroke-width="0.398" fill="none" /></g></g></svg>