<svg xmlns="http://www.w3.org/2000/svg" xmlns:xlink="http://www.w3.org/1999/xlink" id="body_1" preserveAspectRatio="xMinYMin meet" viewBox="0 0 793 1121"><defs><clipPath id="1"><path id="" clip-rule="evenodd" transform="matrix(1 0 0 1 0 0)" d="M0 841L0 -0.8900146L0 -0.8900146L595.276 -0.8900146L595.276 -0.8900146L595.276 841L595.276 841L0 841z" /></clipPath></defs><g transform="matrix(1.333333 0 0 1.333333 0 0)"><g clip-path="url(#1)"><path id="91" transform="matrix(1 0 0 -1 0 841)" d="M39.685 758.138L561.26 758.138" stroke="#000000" stroke-width="0.398" fill="none" /><path id="576" transform="matrix(1 0 0 -1 0 841)" d="M39.685 615.508L561.26 615.508" stroke="#000000" stroke-width="0.398" fill="none" /><path id="1897" transform="matrix(1 0 0 -1 0 841)" d="M39.685 330.452L561.26 330.452" stroke="#000000" stroke-width="0.398" fill="none" /><path id="2688" transform="matrix(1 0 0 -1 0 841)" d="M39.685 167.705L561.26 167.705" stroke="#000000" stroke-width="0.398" fill="none" /><path id="2887" transform="matrix(1 0 0 -1 0 841)" d="M39.685 104.663L561.26 104.663" stroke="#000000" stroke-width="0.398" fill="none" /></g></g></svg>